<?xml version="1.0" encoding="UTF-8" standalone="no"?>
<!-- Created with Inkscape (http://www.inkscape.org/) -->

<svg
   version="1.1"
   id="svg1"
   width="375"
   height="345"
   viewBox="0 0 375 345"
   sodipodi:docname="salesconnect.svg"
   xml:space="preserve"
   inkscape:version="1.4.2 (f4327f4, 2025-05-13)"
   xmlns:inkscape="http://www.inkscape.org/namespaces/inkscape"
   xmlns:sodipodi="http://sodipodi.sourceforge.net/DTD/sodipodi-0.dtd"
   xmlns="http://www.w3.org/2000/svg"
   xmlns:svg="http://www.w3.org/2000/svg"><defs
     id="defs1"><inkscape:path-effect
       effect="fillet_chamfer"
       id="path-effect1"
       is_visible="true"
       lpeversion="1"
       nodesatellites_param="F,0,0,1,0,10.403642,0,1 @ F,0,0,1,0,0,0,1 @ F,0,0,1,0,0,0,1 @ F,0,0,1,0,0,0,1 @ F,0,0,1,0,3.7174584,0,1 @ F,0,0,1,0,0,0,1 @ F,0,0,1,0,0,0,1 @ F,0,0,1,0,3.1367517,0,1 @ F,0,0,1,0,0,0,1 @ F,0,0,1,0,3.4221105,0,1 @ F,0,0,1,0,0,0,1 @ F,0,0,1,0,0,0,1 @ F,0,0,1,0,0,0,1 @ F,0,0,1,0,0,0,1 @ F,0,0,1,0,5.8440133,0,1 @ F,0,0,1,0,0,0,1 @ F,0,0,1,0,0,0,1 @ F,0,0,1,0,0,0,1 @ F,0,0,1,0,0,0,1 @ F,0,0,1,0,0,0,1 @ F,0,0,1,0,0,0,1 @ F,0,0,1,0,0,0,1 @ F,0,0,1,0,0,0,1 @ F,0,0,1,0,0,0,1 @ F,0,0,1,0,0,0,1 | F,0,0,1,0,0,0,1 @ F,0,0,1,0,0,0,1 @ F,0,0,1,0,0,0,1 @ F,0,0,1,0,2.9871448,0,1 @ F,0,0,1,0,0,0,1 @ F,0,0,1,0,29.028193,0,1 @ F,0,0,1,0,0,0,1 @ F,0,0,1,0,28.883386,0,1 @ F,0,0,1,0,0,0,1 @ F,0,0,1,0,0,0,1 @ F,0,0,1,0,0,0,1 @ F,0,0,1,0,0,0,1"
       radius="0"
       unit="px"
       method="auto"
       mode="F"
       chamfer_steps="1"
       flexible="false"
       use_knot_distance="true"
       apply_no_radius="true"
       apply_with_radius="true"
       only_selected="false"
       hide_knots="false" /></defs><sodipodi:namedview
     id="namedview1"
     pagecolor="#ffffff"
     bordercolor="#000000"
     borderopacity="0.25"
     inkscape:showpageshadow="2"
     inkscape:pageopacity="0.0"
     inkscape:pagecheckerboard="0"
     inkscape:deskcolor="#d1d1d1"
     inkscape:zoom="1.7073042"
     inkscape:cx="159.60835"
     inkscape:cy="166.63697"
     inkscape:window-width="1920"
     inkscape:window-height="1051"
     inkscape:window-x="-9"
     inkscape:window-y="-9"
     inkscape:window-maximized="1"
     inkscape:current-layer="g1" /><g
     inkscape:groupmode="layer"
     inkscape:label="Image"
     id="g1"><path
       style="fill:#000000;stroke-width:1;stroke-dasharray:none"
       d="m 58.035467,318.56537 c 1.248033,-4.75554 2.814746,-10.79602 4.46633,-17.23343 C 66.146896,287.12437 69.943458,272.575 70.938601,269 c 0.995144,-3.575 2.803824,-10.1 4.019291,-14.5 0.610587,-2.21033 1.221432,-4.42105 1.712591,-6.19817 0.546928,-1.9789 2.655856,-3.82378 4.007317,-2.74523 1.268171,1.01207 3.042723,2.61709 5.522239,4.94964 9.082411,8.54408 19.853091,14.40008 35.299961,19.19254 l 6.00412,1.86281 a 20.700261,20.700261 8.6201444 0 0 6.13263,0.92967 l 61.36325,0.004 61.07789,0.004 a 15.411849,15.411849 167.48447 0 0 6.52272,-1.44791 L 265.5,269.69681 c 12.08861,-5.64591 18.47279,-14.934 18.49023,-26.90069 0.0146,-9.99606 -4.37631,-18.21482 -12.66413,-23.70444 -9.82277,-6.50633 -8.76681,-6.40715 -74.8261,-7.02837 l -54.15625,-0.50929 a 23.056986,23.056986 14.761443 0 1 -10.95583,-2.88676 l -0.21147,-0.11715 c -9.94902,-5.51122 -14.6904,-14.44956 -14.01407,-26.41899 0.70582,-12.49122 7.59895,-21.19785 19.65406,-24.82478 5.09829,-1.53388 12.27399,-1.71497 69.68356,-1.75862 63.31334,-0.0481 64.08583,-0.0246 72,2.19145 4.4,1.23206 12.275,4.34237 17.5,6.9118 8.15671,4.01112 10.84329,6.02746 19,14.2599 18.75291,18.92702 27.2547,41.78786 25.66945,69.02375 -2.27445,39.07686 -25.99406,69.23172 -62.66945,79.67196 -6.11329,1.74025 -12.94718,1.868 -114.86691,2.14727 -57.15534,0.15717 -84.828448,0.16335 -97.64206,-0.13683 -5.643198,-0.1322 -8.913994,-5.49441 -7.455563,-11.05165 z M 60.097893,147.25 C 51.663621,109.5997 63.126204,75.72721 91.394252,54.76773 100.56205,47.97022 108.2496,44.162856 120.66495,40.271006 l 5.98467,-1.87602 a 19.702697,19.702697 171.21632 0 1 5.83751,-0.901991 l 95.26287,-0.27045 69.22192,-0.19652 A 28.945899,28.945899 44.918669 0 1 326,65.971808 v 0.144806 A 28.888596,28.888596 134.99483 0 1 297.11661,95.00521 L 229.75,95.01736 C 127.38332,95.03583 128.47603,94.98966 114.58168,99.882733 94.383776,106.99568 75.962855,124.07186 65.10238,145.75 c -1.722143,3.4375 -3.313249,6.25 -3.53579,6.25 -0.222541,0 -0.883455,-2.1375 -1.468697,-4.75 z"
       id="path1"
       sodipodi:nodetypes="ssssssscccsssscssssssssscsssscccccssssss"
       inkscape:original-d="m 55.32026,328.6078 c 0.304746,-0.79416 3.536438,-13.06829 7.181537,-27.27586 C 66.146896,287.12437 69.943458,272.575 70.938601,269 c 0.995144,-3.575 2.803824,-10.1 4.019291,-14.5 1.215466,-4.4 2.431954,-8.80153 2.703307,-9.78118 0.396979,-1.43319 2.065235,-0.30248 8.53884,5.78742 9.082411,8.54408 19.853091,14.40008 35.299961,19.19254 l 9,2.79229 64.5,0.004 64.5,0.004 6,-2.80226 c 12.08861,-5.64591 18.47279,-14.934 18.49023,-26.90069 0.0146,-9.99606 -4.37631,-18.21482 -12.66413,-23.70444 -9.82277,-6.50633 -8.76681,-6.40715 -74.8261,-7.02837 l -60,-0.56424 -5.32355,-2.94896 c -9.94902,-5.51122 -14.6904,-14.44956 -14.01407,-26.41899 0.70582,-12.49122 7.59895,-21.19785 19.65406,-24.82478 5.09829,-1.53388 12.27399,-1.71497 69.68356,-1.75862 63.31334,-0.0481 64.08583,-0.0246 72,2.19145 4.4,1.23206 12.275,4.34237 17.5,6.9118 8.15671,4.01112 10.84329,6.02746 19,14.2599 18.75291,18.92702 27.2547,41.78786 25.66945,69.02375 -2.27445,39.07686 -25.99406,69.23172 -62.66945,79.67196 -6.11329,1.74025 -12.94718,1.868 -114.86691,2.14727 C 69.004284,330.0127 54.838976,329.862 55.32026,328.6078 Z M 60.097893,147.25 C 51.663621,109.5997 63.126204,75.72721 91.394252,54.76773 100.56205,47.97022 108.2496,44.162856 120.66495,40.271006 L 129.5,37.501475 227.75,37.222545 326,36.943615 V 65.971808 95 l -96.25,0.01736 C 127.38332,95.03583 128.47603,94.98966 114.58168,99.882733 94.383776,106.99568 75.962855,124.07186 65.10238,145.75 c -1.722143,3.4375 -3.313249,6.25 -3.53579,6.25 -0.222541,0 -0.883455,-2.1375 -1.468697,-4.75 z"
       inkscape:path-effect="#path-effect1"
       transform="translate(-10.542937,-7.6143431)" /></g><g
     inkscape:groupmode="layer"
     id="layer1"
     inkscape:label="logo" /></svg>
